# xmcd
# 
# Track frame offsets:
#     150
#     18073
#     40472
#     57526
#     75231
#     92000
#     106772
#     124793
#     140342
#     154652
#     173532
#     195034
#     211495
#     225630
#     238057
#     256513
#     274523
# 
# Disc length: 3981
# 
# Revision: 2
# Processed by: cddbd v1.5.2PL0 Copyright (c) Steve Scherf et al.
# Submitted via: fre:ac v1.0.27
# 
DISCID=c80f8b11
DTITLE=Various Artist - Things About Comin' My Way: A Tribute to the Music of the Mississippi Sheiks
DYEAR=2009
DGENRE=Blues
TTITLE0=The North Mississippi Allstars - It's Backfirin' Now
TTITLE1=Ndidi Onukwulu - Things About Comin' My Way
TTITLE2=John Hammond - Stop and Listen
TTITLE3=Bruce Cockburn - Honey Babe Let The Deal Go Down
TTITLE4=Oh Susanna (arr. by Van Dyke Parks) - Bootlegger's Blues
TTITLE5=The Carolina Chocolate Drops - Sitting On Top Of The World
TTITLE6=Danny Barnes - Too Long
TTITLE7=Jim Byrnes - Jailbird Love Song
TTITLE8=Bill Frisell - That's It
TTITLE9=Madeleine Peyroux - Please Baby
TTITLE10=Kelly Joe Phelps - Livin' In A Strain
TTITLE11=Steve Dawson - Lonely One In This Town
TTITLE12=Geoff Muldaur and the Texas Sheiks - The World Is Going Wrong
TTITLE13=Del Rey - We Both Are Feeling Good Right Now
TTITLE14=Bob Brozman - Somebody's Gotta Help You
TTITLE15=The Sojourners - He Calls That Religion
TTITLE16=Robin Holcomb - I've Got Blood In My Eyes For You
EXTD=
EXTT0=
EXTT1=
EXTT2=
EXTT3=
EXTT4=
EXTT5=
EXTT6=
EXTT7=
EXTT8=
EXTT9=
EXTT10=
EXTT11=
EXTT12=
EXTT13=
EXTT14=
EXTT15=
EXTT16=
PLAYORDER=
